<svg width="18" height="19" viewBox="0 0 18 19" fill="none" xmlns="http://www.w3.org/2000/svg">
<path d="M7.74114 16.0272C6.21008 16.0272 4.71342 15.5732 3.44039 14.7226C2.16737 13.872 1.17517 12.663 0.589262 11.2485C0.00335406 9.83395 -0.149946 8.27747 0.148747 6.77584C0.44744 5.2742 1.18471 3.89487 2.26733 2.81225C3.34995 1.72963 4.72928 0.992362 6.23092 0.693669C7.73255 0.394976 9.28903 0.548276 10.7035 1.13418C12.118 1.72009 13.327 2.71229 14.1777 3.98531C15.0283 5.25834 15.4823 6.75501 15.4823 8.28606C15.4823 9.30264 15.282 10.3093 14.893 11.2485C14.504 12.1877 13.9338 13.041 13.2149 13.7599C12.4961 14.4787 11.6427 15.0489 10.7035 15.4379C9.76434 15.827 8.75772 16.0272 7.74114 16.0272ZM7.74114 2.09726C6.52117 2.09726 5.32861 2.45902 4.31425 3.1368C3.29989 3.81457 2.50929 4.77792 2.04243 5.90502C1.57557 7.03211 1.45342 8.27234 1.69142 9.46886C1.92943 10.6654 2.51689 11.7645 3.37954 12.6271C4.24218 13.4897 5.34125 14.0772 6.53777 14.3152C7.73429 14.5532 8.97452 14.4311 10.1016 13.9642C11.2287 13.4973 12.1921 12.7067 12.8698 11.6924C13.5476 10.678 13.9094 9.48546 13.9094 8.2655C13.9094 6.62958 13.2595 5.06067 12.1027 3.9039C10.946 2.74713 9.37705 2.09726 7.74114 2.09726Z" fill="currentColor"/>
<path d="M17.2295 18.5457C17.1282 18.5462 17.0278 18.5264 16.9343 18.4876C16.8407 18.4488 16.7559 18.3916 16.6847 18.3196L12.4389 14.0738C12.3027 13.9276 12.2285 13.7343 12.2321 13.5345C12.2356 13.3348 12.3165 13.1442 12.4578 13.0029C12.599 12.8617 12.7896 12.7807 12.9894 12.7772C13.1891 12.7737 13.3824 12.8478 13.5286 12.984L17.7744 17.2298C17.9188 17.3744 17.9999 17.5704 17.9999 17.7747C17.9999 17.979 17.9188 18.175 17.7744 18.3196C17.7032 18.3916 17.6183 18.4488 17.5248 18.4876C17.4312 18.5264 17.3308 18.5462 17.2295 18.5457Z" fill="currentColor"/>
<path d="M7.72074 11.6058C7.51707 11.6032 7.3225 11.5211 7.17848 11.3771C7.03446 11.233 6.95237 11.0385 6.94971 10.8348V5.69461C6.94971 5.49012 7.03094 5.29401 7.17554 5.14941C7.32013 5.00482 7.51625 4.92358 7.72074 4.92358C7.92523 4.92358 8.12134 5.00482 8.26594 5.14941C8.41053 5.29401 8.49177 5.49012 8.49177 5.69461V10.8348C8.4891 11.0385 8.40701 11.233 8.26299 11.3771C8.11897 11.5211 7.9244 11.6032 7.72074 11.6058Z" fill="currentColor"/>
<path d="M10.2911 9.03644H5.15091C4.94642 9.03644 4.75031 8.95521 4.60571 8.81061C4.46112 8.66602 4.37988 8.4699 4.37988 8.26541C4.37988 8.06092 4.46112 7.86481 4.60571 7.72021C4.75031 7.57562 4.94642 7.49438 5.15091 7.49438H10.2911C10.4956 7.49438 10.6917 7.57562 10.8363 7.72021C10.9809 7.86481 11.0621 8.06092 11.0621 8.26541C11.0621 8.4699 10.9809 8.66602 10.8363 8.81061C10.6917 8.95521 10.4956 9.03644 10.2911 9.03644Z" fill="currentColor"/>
</svg>
