<svg width="16" height="16" viewBox="0 0 16 16" fill="none" xmlns="http://www.w3.org/2000/svg">
    <g clip-path="url(#clip0_210_7703)">
    <path d="M7.99984 2.6665C4.6665 2.6665 1.81984 4.73984 0.666504 7.6665C1.81984 10.5932 4.6665 12.6665 7.99984 12.6665C11.3332 12.6665 14.1798 10.5932 15.3332 7.6665C14.1798 4.73984 11.3332 2.6665 7.99984 2.6665ZM7.99984 10.9998C6.15984 10.9998 4.6665 9.5065 4.6665 7.6665C4.6665 5.8265 6.15984 4.33317 7.99984 4.33317C9.83984 4.33317 11.3332 5.8265 11.3332 7.6665C11.3332 9.5065 9.83984 10.9998 7.99984 10.9998ZM7.99984 5.6665C6.89317 5.6665 5.99984 6.55984 5.99984 7.6665C5.99984 8.77317 6.89317 9.6665 7.99984 9.6665C9.1065 9.6665 9.99984 8.77317 9.99984 7.6665C9.99984 6.55984 9.1065 5.6665 7.99984 5.6665Z" fill="currentColor"/>
    </g>
    <defs>
    <clipPath id="clip0_210_7703">
    <rect width="16" height="16" fill="transparent"/>
    </clipPath>
    </defs>
    </svg>
    